<svg width="213" height="284" viewBox="0 0 213 284" fill="none" xmlns="http://www.w3.org/2000/svg">
<g clip-path="url(#clip0_1_20)">
<path opacity="0.18" d="M74.2225 22.2205C66.6222 28.9661 61.1559 37.8143 53.651 44.6646C44.6567 52.8706 33.2132 57.8038 22.9108 64.3115C12.6083 70.8192 2.81193 79.9196 0.529923 91.8409C-3.48985 112.867 16.4515 130.05 24.7631 149.787C37.5815 180.233 22.6196 218.766 40.952 246.276C55.8901 268.673 86.2818 273.687 113.188 275.77C134.514 277.435 159.693 276.869 172.287 259.639C184.079 243.503 178.655 220.963 183.186 201.521C186.943 185.404 197.799 170.528 196.31 154.05C193.87 127.082 160.743 112.606 153.319 86.5558C147.485 66.1002 158.843 42.5239 149.132 23.5763C135.808 -2.45467 92.3162 6.15095 74.2225 22.2205Z" fill="#CCD5AE"/>
<path opacity="0.19" d="M39.5436 260.857C37.9252 263.235 39.2476 267.445 42.1264 267.326L20.581 279.662C24.8777 283.353 31.084 283.638 36.7699 283.719C95.2587 284.572 153.733 283.477 212.193 280.432C214.58 276.988 211.32 272.278 207.586 270.357C203.853 268.435 199.337 267.607 196.606 264.42C195.045 262.588 194.271 260.138 192.586 258.435C189.674 255.457 184.981 255.362 180.823 255.457C153.692 256.147 126.561 256.927 99.4296 257.655C86.7544 258.007 47.9651 248.479 39.5436 260.857Z" fill="url(#paint0_linear_1_20)"/>
<path d="M106.987 41.7818C106.987 41.7818 118.249 31.397 123.835 30.0079C129.42 28.6188 146.134 53.6222 146.134 53.6222L143.561 55.4918L124.207 41.9673C124.207 41.9673 103.311 65.5769 92.364 57.9084C81.417 50.2399 106.987 41.7818 106.987 41.7818Z" fill="#25233A"/>
<path d="M85.6373 3.70579C85.6373 3.70579 88.9362 1.82673 89.8815 2.37856C90.8267 2.93038 94.1781 27.6389 94.1781 27.6389L78.2996 21.545L85.6373 3.70579Z" fill="#CCD5AE"/>
<path d="M85.6373 3.70579C85.6373 3.70579 88.9362 1.82673 89.8814 2.37856C90.8267 2.93038 94.1781 27.6389 94.1781 27.6389L78.2996 21.545L85.6373 3.70579Z" fill="url(#paint1_linear_1_20)"/>
<path d="M167.708 59.4735H63.8962C57.4443 59.4735 52.214 64.6852 52.214 71.1142V252.337C52.214 258.766 57.4443 263.977 63.8962 263.977H167.708C174.16 263.977 179.391 258.766 179.391 252.337V71.1142C179.391 64.6852 174.16 59.4735 167.708 59.4735Z" fill="#CCD5AE"/>
<path d="M167.708 59.4735H63.8962C57.4443 59.4735 52.214 64.6852 52.214 71.1142V252.337C52.214 258.766 57.4443 263.977 63.8962 263.977H167.708C174.16 263.977 179.391 258.766 179.391 252.337V71.1142C179.391 64.6852 174.16 59.4735 167.708 59.4735Z" fill="url(#paint2_linear_1_20)"/>
<path d="M173.304 76.7656V240.634C173.304 241.435 173.209 242.234 173.022 243.013C172.487 245.332 171.179 247.402 169.311 248.884C167.444 250.367 165.127 251.175 162.739 251.176H68.866C66.064 251.176 63.3767 250.067 61.3954 248.092C59.4141 246.118 58.301 243.44 58.301 240.648V76.7656C58.301 73.9736 59.4141 71.2958 61.3954 69.3216C63.3767 67.3473 66.064 66.2381 68.866 66.2381H162.739C164.126 66.2381 165.5 66.5104 166.782 67.0395C168.063 67.5685 169.228 68.344 170.209 69.3216C171.19 70.2991 171.968 71.4597 172.499 72.7369C173.03 74.0142 173.304 75.3831 173.304 76.7656Z" fill="#CCD5AE"/>
<path d="M173.304 76.7656V240.634C173.304 241.435 173.209 242.234 173.022 243.013L90.1679 250.025C87.3756 250.259 84.604 249.379 82.4626 247.578C80.3212 245.777 78.9852 243.202 78.7483 240.42L64.8653 77.1414C64.6629 74.7735 65.2708 72.4069 66.5902 70.4271C67.9095 68.4473 69.8626 66.9709 72.1315 66.2381H162.739C164.126 66.2381 165.5 66.5104 166.782 67.0395C168.063 67.5685 169.228 68.344 170.209 69.3216C171.19 70.2991 171.968 71.4597 172.499 72.7369C173.03 74.0142 173.304 75.3831 173.304 76.7656Z" fill="#CCD5AE"/>
<path d="M155.902 135.097H77.6789C72.722 135.097 68.7037 139.102 68.7037 144.041V168.863C68.7037 173.803 72.722 177.807 77.6789 177.807H155.902C160.859 177.807 164.877 173.803 164.877 168.863V144.041C164.877 139.102 160.859 135.097 155.902 135.097Z" fill="white"/>
<path d="M152.197 170.067H153.2C154.964 170.067 156.394 168.642 156.394 166.884V146.372C156.394 144.614 154.964 143.189 153.2 143.189H152.197C150.434 143.189 149.004 144.614 149.004 146.372V166.884C149.004 168.642 150.434 170.067 152.197 170.067Z" fill="#CCD5AE"/>
<path d="M153.525 190.898H75.3014C70.3445 190.898 66.3262 194.903 66.3262 199.842V224.664C66.3262 229.604 70.3445 233.608 75.3014 233.608H153.525C158.481 233.608 162.5 229.604 162.5 224.664V199.842C162.5 194.903 158.481 190.898 153.525 190.898Z" fill="white"/>
<path d="M84.1239 2.13594C84.1239 2.13594 85.981 3.50599 86.1768 4.99021C86.4871 7.36877 87.5469 7.44488 88.8168 8.12515C89.638 8.56281 88.5352 10.2421 88.5352 10.2421C88.5352 10.2421 90.3302 13.1439 89.7717 15.2466C89.2131 17.3492 85.3795 20.1844 78.5812 18.6431C71.783 17.1018 70.4032 12.7205 72.036 9.44287C73.6687 6.16522 76.9867 1.9409 84.1239 2.13594Z" fill="url(#paint3_linear_1_20)"/>
<path d="M84.6873 1.81247C84.5918 1.66975 85.0596 2.44517 83.2932 2.28818C82.6105 2.22634 80.9874 2.94466 80.1901 4.3385C78.8868 6.62192 78.3568 5.45166 77.4116 7.19277C76.4663 8.93388 76.261 9.88054 77.2684 11.5836C77.636 12.202 78.1372 12.7776 78.2661 13.4864C77.7171 13.3295 77.4307 12.711 76.9199 12.4779C76.594 12.3635 76.2364 12.3788 75.9216 12.5206C75.6068 12.6624 75.359 12.9198 75.2298 13.2391C75.1163 13.5642 75.0821 13.9116 75.1303 14.2524C75.1784 14.5933 75.3075 14.9178 75.5067 15.199C75.911 15.7537 76.4065 16.2362 76.9724 16.6261C77.541 17.0243 78.0463 17.5054 78.4714 18.0533C78.5956 18.2293 78.7054 18.4719 78.5812 18.6527C78.482 18.7629 78.3429 18.8296 78.1945 18.8382C77.0477 18.9701 75.8871 18.7686 74.8527 18.2578C72.9297 17.3573 71.3198 15.906 70.2287 14.0892C69.1377 12.2725 68.615 10.1728 68.7275 8.05857C68.7414 7.56781 68.8466 7.08388 69.0379 6.63143C69.2825 6.17176 69.6056 5.75805 69.9927 5.40885C72.4834 2.98766 75.5503 1.23624 78.9059 0.318733C80.0612 0.00476319 81.3359 -0.199793 82.4148 0.318733C83.4938 0.837259 84.1669 0.846773 84.6873 1.82674" fill="#3F3D56"/>
<path d="M77.5262 18.3625L78.8868 21.6925C78.8868 21.6925 80.2522 23.8617 84.6873 23.3907C89.1224 22.9198 88.1294 22.4108 88.1294 22.4108C88.1294 22.4108 85.8856 22.2871 84.3865 18.6431C82.8874 14.9992 77.5262 18.3625 77.5262 18.3625Z" fill="url(#paint4_linear_1_20)"/>
<path d="M99.3819 55.4775C94.9754 57.0141 90.0104 56.4289 87.3655 55.9009C86.1815 55.6726 85.4559 55.4585 85.4559 55.4585C85.4559 55.4585 64.2447 27.539 78.2948 21.545C78.2948 21.545 79.727 21.0407 85.179 21.6972C90.631 22.3537 93.5861 26.3307 94.159 27.6389C94.7319 28.9471 95.7392 36.4443 95.7392 36.4443L101.516 42.8712C101.516 42.8712 105.77 53.2797 99.3819 55.4775Z" fill="#CCD5AE"/>
<path d="M89.5616 48.5512L87.3655 55.9009C86.1815 55.6726 85.4559 55.4585 85.4559 55.4585C85.4559 55.4585 64.2447 27.539 78.2948 21.545L82.2286 32.9621C82.2286 32.9621 79.8129 35.9353 84.6873 42.2432L89.5616 48.5512Z" fill="url(#paint5_linear_1_20)"/>
<path d="M101.521 42.8712C101.521 42.8712 112.783 32.4864 118.364 31.0973C123.944 29.7082 146.134 53.6222 146.134 53.6222L138.09 56.5812L118.736 43.0567C118.736 43.0567 99.7638 65.6482 88.8025 57.975C77.8412 50.3018 101.521 42.8712 101.521 42.8712Z" fill="#3F3D56"/>
<path d="M139.541 56.0436L142.134 58.4222C142.134 58.4222 147.438 59.7637 148.225 57.9798C149.013 56.1959 146.134 53.627 146.134 53.627L139.541 56.0436Z" fill="url(#paint6_linear_1_20)"/>
<path d="M139.541 57.1187C139.541 57.1187 145.666 54.3881 147.528 54.293C149.39 54.1979 157.855 55.1255 159.435 56.8904C159.769 57.2215 159.993 57.6461 160.079 58.1076C160.164 58.5692 160.106 59.0457 159.912 59.4735H139.541V57.1187Z" fill="#25233A"/>
<path d="M157.573 79.7769H76.008C71.9739 79.7769 68.7037 83.0355 68.7037 87.0553V110.969C68.7037 114.989 71.9739 118.248 76.008 118.248H157.573C161.607 118.248 164.877 114.989 164.877 110.969V87.0553C164.877 83.0355 161.607 79.7769 157.573 79.7769Z" fill="white"/>
<path d="M82.7729 153.945H150.431V159.316H82.7729V153.945ZM76.2228 148.898H77.2827V165.229H76.2228C75.253 165.229 74.3228 164.845 73.637 164.162C72.9512 163.478 72.5659 162.551 72.5659 161.585V152.547C72.5653 152.068 72.6594 151.593 72.8429 151.151C73.0264 150.708 73.2957 150.306 73.6353 149.967C73.9749 149.628 74.3783 149.359 74.8223 149.176C75.2663 148.992 75.7422 148.898 76.2228 148.898Z" fill="#CCD5AE"/>
<path d="M81.3788 143.189H80.3763C78.6124 143.189 77.1824 144.614 77.1824 146.372V166.884C77.1824 168.642 78.6124 170.067 80.3763 170.067H81.3788C83.1427 170.067 84.5727 168.642 84.5727 166.884V146.372C84.5727 144.614 83.1427 143.189 81.3788 143.189Z" fill="#CCD5AE"/>
<path d="M84.5727 146.377V166.884C84.5727 167.728 84.2369 168.536 83.6389 169.133C83.041 169.73 82.2298 170.066 81.3836 170.067H80.3811C79.534 170.067 78.7216 169.732 78.1227 169.135C77.5237 168.538 77.1872 167.729 77.1872 166.884V146.377C77.1866 145.958 77.2687 145.544 77.4289 145.157C77.5892 144.771 77.8243 144.419 78.121 144.123C78.4176 143.827 78.7699 143.592 79.1577 143.432C79.5455 143.272 79.9612 143.189 80.3811 143.189H81.3836C81.803 143.19 82.2182 143.273 82.6055 143.433C82.9927 143.594 83.3445 143.829 83.6406 144.125C83.9367 144.421 84.1715 144.772 84.3314 145.158C84.4913 145.545 84.5733 145.959 84.5727 146.377Z" fill="url(#paint7_linear_1_20)"/>
<path d="M156.394 146.377V166.884C156.393 167.728 156.056 168.537 155.457 169.133C154.858 169.73 154.047 170.066 153.2 170.067H152.202C151.355 170.067 150.542 169.732 149.942 169.135C149.342 168.538 149.005 167.729 149.004 166.884V146.377C149.004 145.531 149.341 144.721 149.94 144.123C150.54 143.525 151.354 143.189 152.202 143.189H153.2C154.047 143.191 154.86 143.527 155.459 144.124C156.057 144.722 156.394 145.532 156.394 146.377Z" fill="url(#paint8_linear_1_20)"/>
<path d="M157.353 165.267H156.294V148.936H157.353C158.323 148.936 159.253 149.32 159.939 150.003C160.625 150.687 161.01 151.613 161.01 152.58V161.618C161.011 162.097 160.917 162.572 160.733 163.014C160.55 163.457 160.281 163.859 159.941 164.198C159.601 164.537 159.198 164.806 158.754 164.989C158.31 165.173 157.834 165.267 157.353 165.267Z" fill="#CCD5AE"/>
<path d="M84.5727 153.945H149.004V159.311H84.5727V153.945Z" fill="url(#paint9_linear_1_20)"/>
<path d="M76.2228 148.898H77.2827V165.229H76.2228C75.253 165.229 74.3228 164.845 73.637 164.162C72.9512 163.478 72.5659 162.551 72.5659 161.585V152.547C72.5653 152.068 72.6594 151.593 72.8429 151.151C73.0264 150.708 73.2957 150.306 73.6353 149.967C73.9749 149.628 74.3783 149.359 74.8223 149.176C75.2663 148.992 75.7422 148.898 76.2228 148.898Z" fill="url(#paint10_linear_1_20)"/>
<path d="M157.353 165.267H156.294V148.936H157.353C158.323 148.936 159.253 149.32 159.939 150.003C160.625 150.687 161.01 151.613 161.01 152.58V161.618C161.011 162.097 160.917 162.572 160.733 163.014C160.55 163.457 160.281 163.859 159.941 164.198C159.601 164.537 159.198 164.806 158.754 164.989C158.31 165.173 157.834 165.267 157.353 165.267Z" fill="url(#paint11_linear_1_20)"/>
<path d="M106.457 210.636H125.233V216.007H106.457V210.636Z" fill="#CCD5AE"/>
<path d="M102.036 202.192H95.3955C92.954 202.192 90.9747 204.164 90.9747 206.597V220.05C90.9747 222.483 92.954 224.455 95.3955 224.455H102.036C104.478 224.455 106.457 222.483 106.457 220.05V206.597C106.457 204.164 104.478 202.192 102.036 202.192Z" fill="#CCD5AE"/>
<path d="M136.29 202.187H129.649C127.208 202.187 125.229 204.159 125.229 206.592V220.045C125.229 222.478 127.208 224.45 129.649 224.45H136.29C138.732 224.45 140.711 222.478 140.711 220.045V206.592C140.711 204.159 138.732 202.187 136.29 202.187Z" fill="#CCD5AE"/>
<path d="M98.7135 202.178V224.436H95.3955C94.8148 224.437 94.2396 224.323 93.703 224.102C93.1664 223.881 92.6788 223.556 92.2681 223.147C91.8575 222.738 91.5319 222.252 91.3099 221.718C91.088 221.183 90.9741 220.61 90.9747 220.031V206.597C90.9741 206.018 91.088 205.445 91.3099 204.91C91.5319 204.376 91.8575 203.89 92.2681 203.481C92.6788 203.071 93.1664 202.747 93.703 202.526C94.2396 202.305 94.8148 202.191 95.3955 202.192L98.7135 202.178ZM132.972 202.178V224.436H129.654C129.074 224.437 128.498 224.323 127.962 224.102C127.425 223.881 126.938 223.556 126.527 223.147C126.116 222.738 125.791 222.252 125.569 221.718C125.347 221.183 125.233 220.61 125.233 220.031V206.597C125.233 206.018 125.347 205.445 125.569 204.91C125.791 204.376 126.116 203.89 126.527 203.481C126.938 203.071 127.425 202.747 127.962 202.526C128.498 202.305 129.074 202.191 129.654 202.192L132.972 202.178Z" fill="#CCD5AE"/>
<path d="M106.457 210.636H125.233V216.007H106.457V210.636Z" fill="url(#paint12_linear_1_20)"/>
<path d="M102.036 202.192H95.3955C92.954 202.192 90.9747 204.164 90.9747 206.597V220.05C90.9747 222.483 92.954 224.455 95.3955 224.455H102.036C104.478 224.455 106.457 222.483 106.457 220.05V206.597C106.457 204.164 104.478 202.192 102.036 202.192Z" fill="url(#paint13_linear_1_20)"/>
<path d="M136.29 202.187H129.649C127.208 202.187 125.229 204.159 125.229 206.592V220.045C125.229 222.478 127.208 224.45 129.649 224.45H136.29C138.732 224.45 140.711 222.478 140.711 220.045V206.592C140.711 204.159 138.732 202.187 136.29 202.187Z" fill="url(#paint14_linear_1_20)"/>
<path d="M98.7135 202.178V224.436H95.3955C94.8148 224.437 94.2396 224.323 93.703 224.102C93.1664 223.881 92.6788 223.556 92.2681 223.147C91.8575 222.738 91.5319 222.252 91.31 221.718C91.088 221.183 90.9741 220.61 90.9747 220.031V206.597C90.9741 206.018 91.088 205.445 91.31 204.91C91.5319 204.376 91.8575 203.89 92.2681 203.481C92.6788 203.071 93.1664 202.747 93.703 202.526C94.2396 202.305 94.8148 202.191 95.3955 202.192L98.7135 202.178Z" fill="url(#paint15_linear_1_20)"/>
<path d="M132.972 202.178V224.436H129.654C129.074 224.437 128.498 224.323 127.962 224.102C127.425 223.881 126.938 223.556 126.527 223.147C126.116 222.738 125.791 222.252 125.569 221.718C125.347 221.183 125.233 220.61 125.233 220.031V206.597C125.233 206.018 125.347 205.445 125.569 204.91C125.791 204.376 126.116 203.89 126.527 203.481C126.938 203.071 127.425 202.747 127.962 202.526C128.498 202.305 129.074 202.191 129.654 202.192L132.972 202.178Z" fill="url(#paint16_linear_1_20)"/>
<path d="M66.3166 12.2163C66.1929 12.9875 66.3043 13.778 66.6365 14.4854C66.872 15.1281 67.3004 15.6828 67.8634 16.0743C68.3086 16.3199 68.8122 16.4407 69.3208 16.424C69.8293 16.4072 70.3238 16.2535 70.7518 15.9792C70.8459 15.9351 70.923 15.8616 70.9714 15.7698C71.0382 15.6033 70.9188 15.4226 70.809 15.2941L69.4198 13.515C68.7801 12.6967 68.3504 11.8167 67.787 10.9699C67.491 10.518 67.3096 10.6274 66.9134 11.0365C66.61 11.368 66.4036 11.7761 66.3166 12.2163Z" fill="url(#paint17_linear_1_20)"/>
<path d="M86.2341 27.6389C85.8569 32.8479 77.2206 35.1361 77.2206 35.1361C72.9812 30.6882 76.1321 25.5552 76.1321 25.5552V25.4791L75.9746 22.915L75.607 16.8402L75.5115 15.2466V15.1942L72.1124 16.4121C72.1124 16.4121 69.8113 15.6081 69.4198 15.3607C69.0283 15.1134 68.1976 13.7528 67.4529 12.0641C66.7081 10.3753 69.0522 9.44288 69.0522 9.44288C69.0522 9.44288 75.8839 7.94439 78.8915 6.58861C79.776 6.20762 80.7417 6.05163 81.7017 6.13467C82.6617 6.21771 83.5859 6.53716 84.3913 7.06432C84.3913 7.06432 86.6064 22.4393 86.2341 27.6389Z" fill="#CCD5AE"/>
<path d="M86.2341 27.6389C85.8569 32.8479 77.2206 35.1361 77.2206 35.1361C72.9812 30.6882 76.1321 25.5552 76.1321 25.5552V25.4791L75.9746 22.915L75.607 16.8402L75.5115 15.2466V15.1942L72.1124 16.4121C72.1124 16.4121 69.8113 15.6081 69.4198 15.3607C69.0283 15.1134 68.1976 13.7528 67.4529 12.0641C66.7081 10.3753 69.0522 9.44288 69.0522 9.44288C69.0522 9.44288 75.8839 7.94439 78.8915 6.58861C79.776 6.20762 80.7417 6.05163 81.7017 6.13467C82.6617 6.21771 83.5859 6.53716 84.3913 7.06432C84.3913 7.06432 86.6064 22.4393 86.2341 27.6389Z" fill="url(#paint18_linear_1_20)"/>
<path d="M78.5192 21.1501C78.4492 21.9283 78.2625 22.6916 77.9654 23.4145C77.5118 24.423 76.8912 24.7656 76.1178 25.5552C76.1894 25.4363 76.1751 25.4268 76.1178 25.4791L75.9603 22.915C75.971 22.8841 75.9837 22.8539 75.9984 22.8246C76.4281 21.7686 75.9316 20.5412 75.8505 19.3995C75.7836 18.548 75.6977 17.6965 75.5974 16.8402L75.4972 16.0695C75.4351 15.5938 75.3444 15.4178 75.4972 15.2466C75.5991 15.1567 75.7152 15.0844 75.8409 15.0325C76.3599 14.8441 76.9132 14.7679 77.4641 14.8089C77.5991 14.7958 77.7353 14.8115 77.8637 14.855C77.9921 14.8985 78.1098 14.9687 78.2088 15.061C78.308 15.2021 78.3704 15.3656 78.3903 15.5367C78.7381 17.3886 78.7816 19.2844 78.5192 21.1501Z" fill="url(#paint19_linear_1_20)"/>
<path opacity="0.47" d="M58.7259 10.8795C58.7832 13.3199 59.9862 15.5891 61.428 17.5633C61.6674 17.8337 61.832 18.1616 61.9054 18.5147C61.9913 19.1902 61.428 19.7468 60.984 20.2701C59.7929 21.7953 59.2342 23.7175 59.4229 25.6409C59.6237 27.5501 60.1756 29.4062 61.0508 31.1163C62.9613 35.1656 65.6525 38.8008 68.971 41.8151C69.4202 42.1587 69.783 42.6017 70.0309 43.109C70.1472 43.365 70.1668 43.6542 70.0861 43.9234C70.0054 44.1926 69.8298 44.4238 69.5917 44.5742C69.0188 44.8406 68.379 44.422 67.9016 44.0129C62.9659 39.7513 59.3771 34.1542 57.5705 27.9005C56.9595 25.7646 56.5871 23.3765 57.6087 21.4023C57.9964 20.8245 58.3077 20.1993 58.5349 19.5422C58.8595 18.0866 57.7233 16.7593 57.0406 15.4321C56.5495 14.4585 56.2791 13.3893 56.2485 12.3001C56.218 11.2109 56.4281 10.1283 56.864 9.12891C57.3414 8.10137 59.251 5.07584 60.6403 5.96543C59.6854 7.55906 58.6829 8.84348 58.7259 10.8795ZM48.5189 14.9944C48.8006 17.4158 50.2137 19.566 51.8369 21.3928C52.0954 21.6431 52.2902 21.9513 52.405 22.2919C52.553 22.9579 52.0374 23.562 51.6459 24.1233C50.602 25.7548 50.226 27.7231 50.5956 29.6226C50.976 31.5057 51.7027 33.3024 52.7392 34.922C55.0207 38.78 58.043 42.152 61.6333 44.8454C62.1122 45.145 62.5157 45.5502 62.8125 46.0299C62.9517 46.2751 62.9974 46.5622 62.9413 46.8383C62.8852 47.1145 62.7309 47.3612 62.5069 47.5331C61.9675 47.8519 61.2848 47.4903 60.7739 47.1288C55.4608 43.3438 51.3645 38.1036 48.982 32.044C48.1752 29.9746 47.5784 27.6341 48.4139 25.5743C48.746 24.9641 48.9964 24.3132 49.1586 23.6381C49.3448 22.1539 48.094 20.9408 47.292 19.6802C46.7135 18.7565 46.3457 17.7174 46.2145 16.6365C46.0833 15.5555 46.192 14.4591 46.5329 13.4246C46.8957 12.3542 48.5332 9.16697 49.9989 9.92335C49.1634 11.5979 48.285 12.9727 48.5189 14.9944Z" fill="#CCD5AE"/>
<path d="M94.5887 91.056C94.5887 91.056 87.3273 99.5808 88.8216 102.554C90.3159 105.527 103.865 105.38 103.865 105.38L106.729 118.224H126.126L129.124 105.608C129.124 105.608 142.153 105.608 142.969 101.641C143.785 97.6732 136.285 89.7478 136.285 89.7478C136.285 89.7478 135.884 86.8935 134.591 87.0743C133.297 87.2551 130.814 87.3692 130.413 88.7583C130.012 90.1474 131.946 91.2368 131.946 91.2368C131.946 91.2368 130.934 91.7934 131.23 92.1882C131.526 92.583 133.703 92.6639 133.703 92.6639C133.703 92.6639 134.896 98.5723 136.09 98.9671C136.09 98.9671 128.991 94.5144 123.29 96.2984C123.29 96.2984 119.972 98.9671 120.469 96.2651C120.612 95.4849 121.166 92.897 121.166 92.897C121.166 92.897 122.956 91.8076 122.956 91.1131C122.956 90.4186 121.963 90.4186 121.662 90.7183C121.362 91.018 122.359 87.8212 120.268 87.041C118.177 86.2608 114.005 85.3665 112.215 88.1399C110.424 90.9133 112.162 91.9456 110.673 92.7495L111.518 93.739C111.518 93.739 110.93 95.9035 111.666 96.2175C113.609 97.05 112.883 97.5352 111.866 97.8016C111.423 97.9171 110.958 97.9202 110.514 97.8105C110.069 97.7008 109.659 97.4819 109.321 97.1737C108.491 96.4125 105.058 95.5467 102.733 96.4982C96.6988 98.9671 94.3595 99.2906 94.3595 99.2906C94.3595 99.2906 97.1953 98.7435 98.2886 94.3812C99.3819 90.019 100.824 88.5347 100.824 88.5347C100.824 88.5347 102.666 88.3397 102.666 88.059C102.666 87.7784 101.821 87.1695 101.821 87.1695C101.821 87.1695 102.466 85.5473 101.54 85.0858C100.593 84.6976 99.616 84.3889 98.618 84.1629C98.618 84.1629 97.4818 84.4246 97.2908 86.4083C97.0998 88.392 94.5887 91.056 94.5887 91.056ZM123.634 259.824H111.537C111.181 259.824 110.83 259.755 110.501 259.619C110.173 259.483 109.875 259.285 109.624 259.034C109.373 258.783 109.174 258.486 109.039 258.159C108.903 257.832 108.834 257.481 108.835 257.127C108.835 256.413 109.119 255.728 109.626 255.223C110.133 254.718 110.82 254.434 111.537 254.434H123.634C124.351 254.434 125.038 254.718 125.545 255.223C126.052 255.728 126.336 256.413 126.336 257.127C126.337 257.481 126.267 257.832 126.132 258.159C125.996 258.486 125.798 258.783 125.547 259.034C125.296 259.285 124.997 259.483 124.669 259.619C124.341 259.755 123.989 259.824 123.634 259.824Z" fill="#CCD5AE"/>
</g>
<defs>
<linearGradient id="paint0_linear_1_20" x1="20.581" y1="269.243" x2="213" y2="269.243" gradientUnits="userSpaceOnUse">
<stop stop-color="#183866"/>
<stop offset="1" stop-color="#1A7FC1"/>
</linearGradient>
<linearGradient id="paint1_linear_1_20" x1="81.0447" y1="14.9611" x2="96.9089" y2="14.9611" gradientUnits="userSpaceOnUse">
<stop/>
<stop offset="0.08" stop-opacity="0.81"/>
<stop offset="1" stop-opacity="0"/>
</linearGradient>
<linearGradient id="paint2_linear_1_20" x1="116.215" y1="312.88" x2="114.423" y2="-349.025" gradientUnits="userSpaceOnUse">
<stop/>
<stop offset="0.14" stop-opacity="0.49"/>
<stop offset="1" stop-opacity="0"/>
</linearGradient>
<linearGradient id="paint3_linear_1_20" x1="78.8104" y1="9.28589" x2="90.3227" y2="16.2437" gradientUnits="userSpaceOnUse">
<stop stop-color="#ECC4D7"/>
<stop offset="0.83" stop-color="#F2EAC9"/>
</linearGradient>
<linearGradient id="paint4_linear_1_20" x1="77.5262" y1="20.2082" x2="88.2249" y2="20.2082" gradientUnits="userSpaceOnUse">
<stop stop-color="#ECC4D7"/>
<stop offset="0.83" stop-color="#F2EAC9"/>
</linearGradient>
<linearGradient id="paint5_linear_1_20" x1="69.6107" y1="43.1946" x2="98.11" y2="33.4855" gradientUnits="userSpaceOnUse">
<stop/>
<stop offset="0.08" stop-opacity="0.81"/>
<stop offset="1" stop-opacity="0"/>
</linearGradient>
<linearGradient id="paint6_linear_1_20" x1="139.541" y1="56.2625" x2="148.364" y2="56.2625" gradientUnits="userSpaceOnUse">
<stop stop-color="#ECC4D7"/>
<stop offset="0.83" stop-color="#F2EAC9"/>
</linearGradient>
<linearGradient id="paint7_linear_1_20" x1="80.9492" y1="142.785" x2="80.7785" y2="176.779" gradientUnits="userSpaceOnUse">
<stop/>
<stop offset="0.17" stop-opacity="0.73"/>
<stop offset="0.29" stop-opacity="0.36"/>
<stop offset="1" stop-opacity="0"/>
</linearGradient>
<linearGradient id="paint8_linear_1_20" x1="153.453" y1="145.011" x2="151.552" y2="174.497" gradientUnits="userSpaceOnUse">
<stop/>
<stop offset="0.14" stop-opacity="0.49"/>
<stop offset="1" stop-opacity="0"/>
</linearGradient>
<linearGradient id="paint9_linear_1_20" x1="116.736" y1="153.574" x2="116.84" y2="159.635" gradientUnits="userSpaceOnUse">
<stop/>
<stop offset="0.17" stop-opacity="0.73"/>
<stop offset="0.29" stop-opacity="0.36"/>
<stop offset="1" stop-opacity="0"/>
</linearGradient>
<linearGradient id="paint10_linear_1_20" x1="71.8355" y1="144.835" x2="81.3448" y2="177.982" gradientUnits="userSpaceOnUse">
<stop/>
<stop offset="0.17" stop-opacity="0.73"/>
<stop offset="0.29" stop-opacity="0.36"/>
<stop offset="1" stop-opacity="0"/>
</linearGradient>
<linearGradient id="paint11_linear_1_20" x1="159.263" y1="148.446" x2="157.016" y2="173.941" gradientUnits="userSpaceOnUse">
<stop/>
<stop offset="0.17" stop-opacity="0.73"/>
<stop offset="0.29" stop-opacity="0.36"/>
<stop offset="1" stop-opacity="0"/>
</linearGradient>
<linearGradient id="paint12_linear_1_20" x1="115.37" y1="206.625" x2="116.949" y2="229.127" gradientUnits="userSpaceOnUse">
<stop/>
<stop offset="0.17" stop-opacity="0.73"/>
<stop offset="0.29" stop-opacity="0.36"/>
<stop offset="1" stop-opacity="0"/>
</linearGradient>
<linearGradient id="paint13_linear_1_20" x1="102.246" y1="186.655" x2="93.1345" y2="255.932" gradientUnits="userSpaceOnUse">
<stop/>
<stop offset="0.17" stop-opacity="0.73"/>
<stop offset="0.29" stop-opacity="0.36"/>
<stop offset="1" stop-opacity="0"/>
</linearGradient>
<linearGradient id="paint14_linear_1_20" x1="135.918" y1="191.084" x2="126.806" y2="260.361" gradientUnits="userSpaceOnUse">
<stop/>
<stop offset="0.17" stop-opacity="0.73"/>
<stop offset="0.29" stop-opacity="0.36"/>
<stop offset="1" stop-opacity="0"/>
</linearGradient>
<linearGradient id="paint15_linear_1_20" x1="84.7827" y1="199.29" x2="105.336" y2="225.202" gradientUnits="userSpaceOnUse">
<stop/>
<stop offset="0.17" stop-opacity="0.73"/>
<stop offset="0.26" stop-opacity="0.55"/>
<stop offset="1" stop-opacity="0"/>
</linearGradient>
<linearGradient id="paint16_linear_1_20" x1="129.406" y1="196.046" x2="128.88" y2="230.149" gradientUnits="userSpaceOnUse">
<stop/>
<stop offset="0.17" stop-opacity="0.73"/>
<stop offset="0.29" stop-opacity="0.36"/>
<stop offset="1" stop-opacity="0"/>
</linearGradient>
<linearGradient id="paint17_linear_1_20" x1="66.2593" y1="13.5483" x2="70.9905" y2="13.5483" gradientUnits="userSpaceOnUse">
<stop stop-color="#ECC4D7"/>
<stop offset="0.83" stop-color="#F2EAC9"/>
</linearGradient>
<linearGradient id="paint18_linear_1_20" x1="56.8592" y1="24.6466" x2="121.915" y2="12.7339" gradientUnits="userSpaceOnUse">
<stop offset="0.01" stop-color="white"/>
<stop offset="0.07" stop-color="white" stop-opacity="0.87"/>
<stop offset="0.17" stop-color="white" stop-opacity="0.67"/>
<stop offset="0.27" stop-color="white" stop-opacity="0.49"/>
<stop offset="0.37" stop-color="white" stop-opacity="0.34"/>
<stop offset="0.48" stop-color="white" stop-opacity="0.21"/>
<stop offset="0.59" stop-color="white" stop-opacity="0.12"/>
<stop offset="0.7" stop-color="white" stop-opacity="0.05"/>
<stop offset="0.83" stop-color="white" stop-opacity="0.01"/>
<stop offset="0.99" stop-color="white" stop-opacity="0"/>
</linearGradient>
<linearGradient id="paint19_linear_1_20" x1="79.7079" y1="16.0172" x2="68.3445" y2="29.2724" gradientUnits="userSpaceOnUse">
<stop/>
<stop offset="0.08" stop-opacity="0.81"/>
<stop offset="1" stop-opacity="0"/>
</linearGradient>
<clipPath id="clip0_1_20">
<rect width="213" height="284" fill="white"/>
</clipPath>
</defs>
</svg>
